<svg width="24" height="20" viewBox="0 0 24 20" fill="none" xmlns="http://www.w3.org/2000/svg">
<g filter="url(#filter0_d_nav_meetings)">
<path d="M19 3H17V1H15V3H9V1H7V3H5C3.89 3 3 3.9 3 5V17C3 18.1 3.89 19 5 19H19C20.1 19 21 18.1 21 17V5C21 3.9 20.1 3 19 3ZM19 17H5V8H19V17ZM19 6H5V5H19V6ZM7 10H12V15H7V10Z" fill="url(#paint0_linear_nav_meetings)"/>
</g>
<defs>
<filter id="filter0_d_nav_meetings" x="0" y="0" width="24" height="20" filterUnits="userSpaceOnUse" color-interpolation-filters="sRGB">
<feFlood flood-opacity="0" result="BackgroundImageFix"/>
<feColorMatrix in="SourceAlpha" type="matrix" values="0 0 0 0 0 0 0 0 0 0 0 0 0 0 0 0 0 0 127 0" result="hardAlpha"/>
<feOffset dy="1"/>
<feGaussianBlur stdDeviation="0.5"/>
<feComposite in2="hardAlpha" operator="out"/>
<feColorMatrix type="matrix" values="0 0 0 0 0 0 0 0 0 0 0 0 0 0 0 0 0 0 0.25 0"/>
<feBlend mode="normal" in2="BackgroundImageFix" result="effect1_dropShadow_nav_meetings"/>
<feBlend mode="normal" in="SourceGraphic" in2="effect1_dropShadow_nav_meetings" result="shape"/>
</filter>
<linearGradient id="paint0_linear_nav_meetings" x1="12" y1="0" x2="12" y2="19" gradientUnits="userSpaceOnUse">
<stop stop-color="#FFCC80"/>
<stop offset="1" stop-color="#E76A33"/>
</linearGradient>
</defs>
</svg>
